<svg xmlns="http://www.w3.org/2000/svg" width="1600" viewBox="0 0 4200 1018"><rect width="100%" height="100%" fill="#f6f8fb"/><g font-family="Arial,sans-serif" fill="#243447"><path d="M400,399 L510,399" fill="none" stroke="#7991a8" stroke-width="2"/><path d="M3220,596 L3330,596" fill="none" stroke="#7991a8" stroke-width="2"/><path d="M2280,309 L2558,309" fill="none" stroke="#7991a8" stroke-width="2"/><path d="M2582,309 L2790,309 L2790,626 L2860,626" fill="none" stroke="#7991a8" stroke-width="2"/><path d="M2582,309 L2860,309" fill="none" stroke="#7991a8" stroke-width="2"/><path d="M2280,746 L2390,746" fill="none" stroke="#7991a8" stroke-width="2"/><path d="M1810,542 L2088,542" fill="none" stroke="#7991a8" stroke-width="2"/><path d="M2112,542 L2310,542 L2310,716 L2390,716" fill="none" stroke="#7991a8" stroke-width="2"/><path d="M2112,542 L2780,542 L2780,656 L2860,656" fill="none" stroke="#7991a8" stroke-width="2"/><path d="M870,339 L1148,339" fill="none" stroke="#7991a8" stroke-width="2"/><path d="M1172,339 L1370,339 L1370,572 L1450,572" fill="none" stroke="#7991a8" stroke-width="2"/><path d="M1172,339 L1920,339" fill="none" stroke="#7991a8" stroke-width="2"/><path d="M1172,339 L1840,339 L1840,163 L3330,163" fill="none" stroke="#7991a8" stroke-width="2"/><path d="M870,602 L1148,602" fill="none" stroke="#7991a8" stroke-width="2"/><path d="M1172,602 L1370,602 L1370,806 L1920,806" fill="none" stroke="#7991a8" stroke-width="2"/><path d="M1172,602 L1450,602" fill="none" stroke="#7991a8" stroke-width="2"/><path d="M3690,133 L3730,133 L3730,843 L3800,843" fill="none" stroke="#7991a8" stroke-width="2"/><path d="M3690,536 L3720,536 L3720,873 L3800,873" fill="none" stroke="#7991a8" stroke-width="2"/><path d="M3220,279 L3250,279 L3250,566 L3330,566" fill="none" stroke="#7991a8" stroke-width="2"/><path d="M2750,686 L2860,686" fill="none" stroke="#7991a8" stroke-width="2"/><path d="M1340,772 L1618,772" fill="none" stroke="#7991a8" stroke-width="2"/><path d="M1642,772 L1840,772 L1840,776 L1920,776" fill="none" stroke="#7991a8" stroke-width="2"/><path d="M1642,772 L1840,772 L1840,369 L1920,369" fill="none" stroke="#7991a8" stroke-width="2"/><path d="M1642,772 L1840,772 L1840,903 L3800,903" fill="none" stroke="#7991a8" stroke-width="2"/><g transform="translate(40,306)"><rect width="360" height="108" rx="6" fill="white" stroke="#cfd8e3"/><rect width="360" height="4" fill="#0f766e"/><text x="12" y="26" font-size="15" font-weight="600">customers</text><text x="12" y="49" font-size="11" fill="#64748b">订单与库存占用</text><text x="12" y="96" font-size="11">id</text><text x="190" y="96" font-size="10" fill="#64748b">BIGINT</text></g><g transform="translate(510,509)"><rect width="360" height="138" rx="6" fill="white" stroke="#cfd8e3"/><rect width="360" height="4" fill="#3276b9"/><text x="12" y="26" font-size="15" font-weight="600">products</text><text x="12" y="49" font-size="11" fill="#64748b">商品与库存</text><text x="12" y="96" font-size="11">id</text><text x="190" y="96" font-size="10" fill="#64748b">BIGINT</text><text x="12" y="126" font-size="11">sku</text><text x="190" y="126" font-size="10" fill="#64748b">VARCHAR</text></g><g transform="translate(980,679)"><rect width="360" height="108" rx="6" fill="white" stroke="#cfd8e3"/><rect width="360" height="4" fill="#3276b9"/><text x="12" y="26" font-size="15" font-weight="600">warehouses</text><text x="12" y="49" font-size="11" fill="#64748b">商品与库存</text><text x="12" y="96" font-size="11">id</text><text x="190" y="96" font-size="10" fill="#64748b">BIGINT</text></g><g transform="translate(1920,653)"><rect width="360" height="228" rx="6" fill="white" stroke="#cfd8e3"/><rect width="360" height="4" fill="#3276b9"/><text x="12" y="26" font-size="15" font-weight="600">inventory</text><text x="12" y="49" font-size="11" fill="#64748b">商品与库存</text><text x="12" y="96" font-size="11">id</text><text x="190" y="96" font-size="10" fill="#64748b">BIGINT</text><text x="12" y="126" font-size="11">warehouse_id</text><text x="190" y="126" font-size="10" fill="#64748b">BIGINT</text><text x="12" y="156" font-size="11">product_id</text><text x="190" y="156" font-size="10" fill="#64748b">BIGINT</text><text x="12" y="186" font-size="11">on_hand</text><text x="190" y="186" font-size="10" fill="#64748b">INT</text><text x="12" y="216" font-size="11">reserved</text><text x="190" y="216" font-size="10" fill="#64748b">INT</text></g><g transform="translate(510,246)"><rect width="360" height="198" rx="6" fill="white" stroke="#cfd8e3"/><rect width="360" height="4" fill="#0f766e"/><text x="12" y="26" font-size="15" font-weight="600">orders</text><text x="12" y="49" font-size="11" fill="#64748b">订单与库存占用</text><text x="12" y="96" font-size="11">id</text><text x="190" y="96" font-size="10" fill="#64748b">BIGINT</text><text x="12" y="126" font-size="11">order_no</text><text x="190" y="126" font-size="10" fill="#64748b">VARCHAR</text><text x="12" y="156" font-size="11">customer_id</text><text x="190" y="156" font-size="10" fill="#64748b">BIGINT</text><text x="12" y="186" font-size="11">status</text><text x="190" y="186" font-size="10" fill="#64748b">VARCHAR</text></g><g transform="translate(1450,449)"><rect width="360" height="198" rx="6" fill="white" stroke="#cfd8e3"/><rect width="360" height="4" fill="#0f766e"/><text x="12" y="26" font-size="15" font-weight="600">order_items</text><text x="12" y="49" font-size="11" fill="#64748b">订单与库存占用</text><text x="12" y="96" font-size="11">id</text><text x="190" y="96" font-size="10" fill="#64748b">BIGINT</text><text x="12" y="126" font-size="11">order_id</text><text x="190" y="126" font-size="10" fill="#64748b">BIGINT</text><text x="12" y="156" font-size="11">product_id</text><text x="190" y="156" font-size="10" fill="#64748b">BIGINT</text><text x="12" y="186" font-size="11">quantity</text><text x="190" y="186" font-size="10" fill="#64748b">INT</text></g><g transform="translate(2390,593)"><rect width="360" height="228" rx="6" fill="white" stroke="#cfd8e3"/><rect width="360" height="4" fill="#0f766e"/><text x="12" y="26" font-size="15" font-weight="600">stock_reservations</text><text x="12" y="49" font-size="11" fill="#64748b">订单与库存占用</text><text x="12" y="96" font-size="11">id</text><text x="190" y="96" font-size="10" fill="#64748b">BIGINT</text><text x="12" y="126" font-size="11">order_item_id</text><text x="190" y="126" font-size="10" fill="#64748b">BIGINT</text><text x="12" y="156" font-size="11">inventory_id</text><text x="190" y="156" font-size="10" fill="#64748b">BIGINT</text><text x="12" y="186" font-size="11">quantity</text><text x="190" y="186" font-size="10" fill="#64748b">INT</text><text x="12" y="216" font-size="11">status</text><text x="190" y="216" font-size="10" fill="#64748b">VARCHAR</text></g><g transform="translate(1920,216)"><rect width="360" height="228" rx="6" fill="white" stroke="#cfd8e3"/><rect width="360" height="4" fill="#865bb4"/><text x="12" y="26" font-size="15" font-weight="600">fulfillments</text><text x="12" y="49" font-size="11" fill="#64748b">分仓履约与发货</text><text x="12" y="96" font-size="11">id</text><text x="190" y="96" font-size="10" fill="#64748b">BIGINT</text><text x="12" y="126" font-size="11">order_id</text><text x="190" y="126" font-size="10" fill="#64748b">BIGINT</text><text x="12" y="156" font-size="11">warehouse_id</text><text x="190" y="156" font-size="10" fill="#64748b">BIGINT</text><text x="12" y="186" font-size="11">fulfillment_no</text><text x="190" y="186" font-size="10" fill="#64748b">VARCHAR</text><text x="12" y="216" font-size="11">status</text><text x="190" y="216" font-size="10" fill="#64748b">VARCHAR</text></g><g transform="translate(2860,503)"><rect width="360" height="228" rx="6" fill="white" stroke="#cfd8e3"/><rect width="360" height="4" fill="#865bb4"/><text x="12" y="26" font-size="15" font-weight="600">fulfillment_items</text><text x="12" y="49" font-size="11" fill="#64748b">分仓履约与发货</text><text x="12" y="96" font-size="11">id</text><text x="190" y="96" font-size="10" fill="#64748b">BIGINT</text><text x="12" y="126" font-size="11">fulfillment_id</text><text x="190" y="126" font-size="10" fill="#64748b">BIGINT</text><text x="12" y="156" font-size="11">order_item_id</text><text x="190" y="156" font-size="10" fill="#64748b">BIGINT</text><text x="12" y="186" font-size="11">reservation_id</text><text x="190" y="186" font-size="10" fill="#64748b">BIGINT</text><text x="12" y="216" font-size="11">quantity</text><text x="190" y="216" font-size="10" fill="#64748b">INT</text></g><g transform="translate(2860,186)"><rect width="360" height="168" rx="6" fill="white" stroke="#cfd8e3"/><rect width="360" height="4" fill="#865bb4"/><text x="12" y="26" font-size="15" font-weight="600">shipments</text><text x="12" y="49" font-size="11" fill="#64748b">分仓履约与发货</text><text x="12" y="96" font-size="11">id</text><text x="190" y="96" font-size="10" fill="#64748b">BIGINT</text><text x="12" y="126" font-size="11">fulfillment_id</text><text x="190" y="126" font-size="10" fill="#64748b">BIGINT</text><text x="12" y="156" font-size="11">status</text><text x="190" y="156" font-size="10" fill="#64748b">VARCHAR</text></g><g transform="translate(3330,443)"><rect width="360" height="198" rx="6" fill="white" stroke="#cfd8e3"/><rect width="360" height="4" fill="#865bb4"/><text x="12" y="26" font-size="15" font-weight="600">shipment_items</text><text x="12" y="49" font-size="11" fill="#64748b">分仓履约与发货</text><text x="12" y="96" font-size="11">id</text><text x="190" y="96" font-size="10" fill="#64748b">BIGINT</text><text x="12" y="126" font-size="11">shipment_id</text><text x="190" y="126" font-size="10" fill="#64748b">BIGINT</text><text x="12" y="156" font-size="11">fulfillment_item_id</text><text x="190" y="156" font-size="10" fill="#64748b">BIGINT</text><text x="12" y="186" font-size="11">quantity</text><text x="190" y="186" font-size="10" fill="#64748b">INT</text></g><g transform="translate(3330,40)"><rect width="360" height="198" rx="6" fill="white" stroke="#cfd8e3"/><rect width="360" height="4" fill="#bd7a24"/><text x="12" y="26" font-size="15" font-weight="600">returns</text><text x="12" y="49" font-size="11" fill="#64748b">退货与处置</text><text x="12" y="96" font-size="11">id</text><text x="190" y="96" font-size="10" fill="#64748b">BIGINT</text><text x="12" y="126" font-size="11">order_id</text><text x="190" y="126" font-size="10" fill="#64748b">BIGINT</text><text x="12" y="156" font-size="11">return_no</text><text x="190" y="156" font-size="10" fill="#64748b">VARCHAR</text><text x="12" y="186" font-size="11">status</text><text x="190" y="186" font-size="10" fill="#64748b">VARCHAR</text></g><g transform="translate(3800,720)"><rect width="360" height="258" rx="6" fill="white" stroke="#cfd8e3"/><rect width="360" height="4" fill="#bd7a24"/><text x="12" y="26" font-size="15" font-weight="600">return_items</text><text x="12" y="49" font-size="11" fill="#64748b">退货与处置</text><text x="12" y="96" font-size="11">id</text><text x="190" y="96" font-size="10" fill="#64748b">BIGINT</text><text x="12" y="126" font-size="11">return_id</text><text x="190" y="126" font-size="10" fill="#64748b">BIGINT</text><text x="12" y="156" font-size="11">shipment_item_id</text><text x="190" y="156" font-size="10" fill="#64748b">BIGINT</text><text x="12" y="186" font-size="11">warehouse_id</text><text x="190" y="186" font-size="10" fill="#64748b">BIGINT</text><text x="12" y="216" font-size="11">quantity</text><text x="190" y="216" font-size="10" fill="#64748b">INT</text><text x="12" y="246" font-size="11">disposition</text><text x="190" y="246" font-size="10" fill="#64748b">VARCHAR</text></g><line x1="2558" y1="309" x2="2582" y2="309" stroke="#865bb4" stroke-width="2"/><circle cx="2570" cy="309" r="6" fill="#865bb4"/><line x1="2088" y1="542" x2="2112" y2="542" stroke="#0f766e" stroke-width="2"/><circle cx="2100" cy="542" r="6" fill="#0f766e"/><line x1="1148" y1="339" x2="1172" y2="339" stroke="#0f766e" stroke-width="2"/><circle cx="1160" cy="339" r="6" fill="#0f766e"/><line x1="1148" y1="602" x2="1172" y2="602" stroke="#3276b9" stroke-width="2"/><circle cx="1160" cy="602" r="6" fill="#3276b9"/><line x1="1618" y1="772" x2="1642" y2="772" stroke="#3276b9" stroke-width="2"/><circle cx="1630" cy="772" r="6" fill="#3276b9"/></g></svg>
