<svg data-eda-scene="true" viewBox="0 0 4200 1018" aria-label="EDA 正交原理图" xmlns="http://www.w3.org/2000/svg" width="4200" height="1018"><style>svg{--wiki-ink:#0d253d;--wiki-muted:#53657d;--wiki-card:#fff;--wiki-line:#dfe7f1;--wiki-surface:#f8fafc;--wiki-type-number:#886019;--wiki-grid:#c8d4e2;--wiki-canvas:#f8fafc;background:var(--wiki-canvas);font-family:system-ui,sans-serif}
    .eda-node-title{font-size:14px;font-weight:600;fill:var(--wiki-ink)}
    .eda-small{font-size:11px;fill:var(--wiki-muted)}
    .eda-label-code{font-size:12px;font-weight:600;fill:var(--wiki-ink)}
    .eda-field-name{font-size:11px;fill:var(--wiki-ink)}.eda-field-type{font-size:10px;fill:var(--wiki-type-number)}</style><defs><pattern id="eda-grid" width="30" height="30" patternUnits="userSpaceOnUse"><circle cx="1" cy="1" r=".8" fill="var(--wiki-grid)"/></pattern></defs><rect x="0" y="0" width="4200" height="1018" fill="url(#eda-grid)"/><g data-eda-wire="wire-0" data-net-ids="[&quot;net:[\&quot;customers\&quot;,[\&quot;customers.id\&quot;]]&quot;]" data-rel-ids="[&quot;demo-rel-2&quot;]" data-kind="branch" data-highlight="false" opacity="1" role="button" tabindex="0" aria-label="关系 1 条"><g><path d="M 400 399 L 510 399" fill="none" stroke="transparent" stroke-width="14" vector-effect="non-scaling-stroke"/><path class="eda-wire" d="M 400 399 L 510 399" fill="none" stroke="#536f8b" stroke-width="1.5" vector-effect="non-scaling-stroke" pointer-events="none"/></g></g><g data-eda-wire="wire-1" data-net-ids="[&quot;net:[\&quot;fulfillment_items\&quot;,[\&quot;fulfillment_items.id\&quot;]]&quot;]" data-rel-ids="[&quot;demo-rel-14&quot;]" data-kind="branch" data-highlight="false" opacity="1" role="button" tabindex="0" aria-label="关系 1 条"><g><path d="M 3220 596 L 3330 596" fill="none" stroke="transparent" stroke-width="14" vector-effect="non-scaling-stroke"/><path class="eda-wire" d="M 3220 596 L 3330 596" fill="none" stroke="#536f8b" stroke-width="1.5" vector-effect="non-scaling-stroke" pointer-events="none"/></g></g><g data-eda-wire="wire-2" data-net-ids="[&quot;net:[\&quot;fulfillments\&quot;,[\&quot;fulfillments.id\&quot;]]&quot;]" data-rel-ids="[&quot;demo-rel-9&quot;,&quot;demo-rel-12&quot;]" data-kind="bus" data-highlight="false" opacity="1" role="button" tabindex="0" aria-label="Bus 2 条"><g><path d="M 2280 309 L 2558 309" fill="none" stroke="transparent" stroke-width="14" vector-effect="non-scaling-stroke"/><path class="eda-wire" d="M 2280 309 L 2558 309" fill="none" stroke="#865bb4" stroke-width="2.8" vector-effect="non-scaling-stroke" pointer-events="none"/></g></g><g data-eda-wire="wire-3" data-net-ids="[&quot;net:[\&quot;fulfillments\&quot;,[\&quot;fulfillments.id\&quot;]]&quot;]" data-rel-ids="[&quot;demo-rel-9&quot;]" data-kind="branch" data-highlight="false" opacity="1" role="button" tabindex="0" aria-label="关系 1 条"><g><path d="M 2582 309 L 2790 309 L 2790 626 L 2860 626" fill="none" stroke="transparent" stroke-width="14" vector-effect="non-scaling-stroke"/><path class="eda-wire" d="M 2582 309 L 2790 309 L 2790 626 L 2860 626" fill="none" stroke="#865bb4" stroke-width="1.5" vector-effect="non-scaling-stroke" pointer-events="none"/></g></g><g data-eda-wire="wire-4" data-net-ids="[&quot;net:[\&quot;fulfillments\&quot;,[\&quot;fulfillments.id\&quot;]]&quot;]" data-rel-ids="[&quot;demo-rel-12&quot;]" data-kind="branch" data-highlight="false" opacity="1" role="button" tabindex="0" aria-label="关系 1 条"><g><path d="M 2582 309 L 2860 309" fill="none" stroke="transparent" stroke-width="14" vector-effect="non-scaling-stroke"/><path class="eda-wire" d="M 2582 309 L 2860 309" fill="none" stroke="#865bb4" stroke-width="1.5" vector-effect="non-scaling-stroke" pointer-events="none"/></g></g><g data-eda-wire="wire-5" data-net-ids="[&quot;net:[\&quot;inventory\&quot;,[\&quot;inventory.id\&quot;]]&quot;]" data-rel-ids="[&quot;demo-rel-6&quot;]" data-kind="branch" data-highlight="false" opacity="1" role="button" tabindex="0" aria-label="关系 1 条"><g><path d="M 2280 746 L 2390 746" fill="none" stroke="transparent" stroke-width="14" vector-effect="non-scaling-stroke"/><path class="eda-wire" d="M 2280 746 L 2390 746" fill="none" stroke="#536f8b" stroke-width="1.5" vector-effect="non-scaling-stroke" pointer-events="none"/></g></g><g data-eda-wire="wire-6" data-net-ids="[&quot;net:[\&quot;order_items\&quot;,[\&quot;order_items.id\&quot;]]&quot;]" data-rel-ids="[&quot;demo-rel-5&quot;,&quot;demo-rel-10&quot;]" data-kind="bus" data-highlight="false" opacity="1" role="button" tabindex="0" aria-label="Bus 2 条"><g><path d="M 1810 542 L 2088 542" fill="none" stroke="transparent" stroke-width="14" vector-effect="non-scaling-stroke"/><path class="eda-wire" d="M 1810 542 L 2088 542" fill="none" stroke="#0f766e" stroke-width="2.8" vector-effect="non-scaling-stroke" pointer-events="none"/></g></g><g data-eda-wire="wire-7" data-net-ids="[&quot;net:[\&quot;order_items\&quot;,[\&quot;order_items.id\&quot;]]&quot;]" data-rel-ids="[&quot;demo-rel-5&quot;]" data-kind="branch" data-highlight="false" opacity="1" role="button" tabindex="0" aria-label="关系 1 条"><g><path d="M 2112 542 L 2310 542 L 2310 716 L 2390 716" fill="none" stroke="transparent" stroke-width="14" vector-effect="non-scaling-stroke"/><path class="eda-wire" d="M 2112 542 L 2310 542 L 2310 716 L 2390 716" fill="none" stroke="#0f766e" stroke-width="1.5" vector-effect="non-scaling-stroke" pointer-events="none"/></g></g><g data-eda-wire="wire-8" data-net-ids="[&quot;net:[\&quot;order_items\&quot;,[\&quot;order_items.id\&quot;]]&quot;]" data-rel-ids="[&quot;demo-rel-10&quot;]" data-kind="branch" data-highlight="false" opacity="1" role="button" tabindex="0" aria-label="关系 1 条"><g><path d="M 2112 542 L 2780 542 L 2780 656 L 2860 656" fill="none" stroke="transparent" stroke-width="14" vector-effect="non-scaling-stroke"/><path class="eda-wire" d="M 2112 542 L 2780 542 L 2780 656 L 2860 656" fill="none" stroke="#0f766e" stroke-width="1.5" vector-effect="non-scaling-stroke" pointer-events="none"/></g></g><g data-eda-wire="wire-9" data-net-ids="[&quot;net:[\&quot;orders\&quot;,[\&quot;orders.id\&quot;]]&quot;]" data-rel-ids="[&quot;demo-rel-3&quot;,&quot;demo-rel-7&quot;,&quot;demo-rel-15&quot;]" data-kind="bus" data-highlight="false" opacity="1" role="button" tabindex="0" aria-label="Bus 3 条"><g><path d="M 870 339 L 1148 339" fill="none" stroke="transparent" stroke-width="14" vector-effect="non-scaling-stroke"/><path class="eda-wire" d="M 870 339 L 1148 339" fill="none" stroke="#0f766e" stroke-width="2.8" vector-effect="non-scaling-stroke" pointer-events="none"/></g></g><g data-eda-wire="wire-10" data-net-ids="[&quot;net:[\&quot;orders\&quot;,[\&quot;orders.id\&quot;]]&quot;]" data-rel-ids="[&quot;demo-rel-3&quot;]" data-kind="branch" data-highlight="false" opacity="1" role="button" tabindex="0" aria-label="关系 1 条"><g><path d="M 1172 339 L 1370 339 L 1370 572 L 1450 572" fill="none" stroke="transparent" stroke-width="14" vector-effect="non-scaling-stroke"/><path class="eda-wire" d="M 1172 339 L 1370 339 L 1370 572 L 1450 572" fill="none" stroke="#0f766e" stroke-width="1.5" vector-effect="non-scaling-stroke" pointer-events="none"/></g></g><g data-eda-wire="wire-11" data-net-ids="[&quot;net:[\&quot;orders\&quot;,[\&quot;orders.id\&quot;]]&quot;]" data-rel-ids="[&quot;demo-rel-7&quot;]" data-kind="branch" data-highlight="false" opacity="1" role="button" tabindex="0" aria-label="关系 1 条"><g><path d="M 1172 339 L 1920 339" fill="none" stroke="transparent" stroke-width="14" vector-effect="non-scaling-stroke"/><path class="eda-wire" d="M 1172 339 L 1920 339" fill="none" stroke="#0f766e" stroke-width="1.5" vector-effect="non-scaling-stroke" pointer-events="none"/></g></g><g data-eda-wire="wire-12" data-net-ids="[&quot;net:[\&quot;orders\&quot;,[\&quot;orders.id\&quot;]]&quot;]" data-rel-ids="[&quot;demo-rel-15&quot;]" data-kind="branch" data-highlight="false" opacity="1" role="button" tabindex="0" aria-label="关系 1 条"><g><path d="M 1172 339 L 1840 339 L 1840 163 L 3330 163" fill="none" stroke="transparent" stroke-width="14" vector-effect="non-scaling-stroke"/><path class="eda-wire" d="M 1172 339 L 1840 339 L 1840 163 L 3330 163" fill="none" stroke="#0f766e" stroke-width="1.5" vector-effect="non-scaling-stroke" pointer-events="none"/></g></g><g data-eda-wire="wire-13" data-net-ids="[&quot;net:[\&quot;products\&quot;,[\&quot;products.id\&quot;]]&quot;]" data-rel-ids="[&quot;demo-rel-1&quot;,&quot;demo-rel-4&quot;]" data-kind="bus" data-highlight="false" opacity="1" role="button" tabindex="0" aria-label="Bus 2 条"><g><path d="M 870 602 L 1148 602" fill="none" stroke="transparent" stroke-width="14" vector-effect="non-scaling-stroke"/><path class="eda-wire" d="M 870 602 L 1148 602" fill="none" stroke="#3276b9" stroke-width="2.8" vector-effect="non-scaling-stroke" pointer-events="none"/></g></g><g data-eda-wire="wire-14" data-net-ids="[&quot;net:[\&quot;products\&quot;,[\&quot;products.id\&quot;]]&quot;]" data-rel-ids="[&quot;demo-rel-1&quot;]" data-kind="branch" data-highlight="false" opacity="1" role="button" tabindex="0" aria-label="关系 1 条"><g><path d="M 1172 602 L 1370 602 L 1370 806 L 1920 806" fill="none" stroke="transparent" stroke-width="14" vector-effect="non-scaling-stroke"/><path class="eda-wire" d="M 1172 602 L 1370 602 L 1370 806 L 1920 806" fill="none" stroke="#3276b9" stroke-width="1.5" vector-effect="non-scaling-stroke" pointer-events="none"/></g></g><g data-eda-wire="wire-15" data-net-ids="[&quot;net:[\&quot;products\&quot;,[\&quot;products.id\&quot;]]&quot;]" data-rel-ids="[&quot;demo-rel-4&quot;]" data-kind="branch" data-highlight="false" opacity="1" role="button" tabindex="0" aria-label="关系 1 条"><g><path d="M 1172 602 L 1450 602" fill="none" stroke="transparent" stroke-width="14" vector-effect="non-scaling-stroke"/><path class="eda-wire" d="M 1172 602 L 1450 602" fill="none" stroke="#3276b9" stroke-width="1.5" vector-effect="non-scaling-stroke" pointer-events="none"/></g></g><g data-eda-wire="wire-16" data-net-ids="[&quot;net:[\&quot;returns\&quot;,[\&quot;returns.id\&quot;]]&quot;]" data-rel-ids="[&quot;demo-rel-16&quot;]" data-kind="branch" data-highlight="false" opacity="1" role="button" tabindex="0" aria-label="关系 1 条"><g><path d="M 3690 133 L 3730 133 L 3730 843 L 3800 843" fill="none" stroke="transparent" stroke-width="14" vector-effect="non-scaling-stroke"/><path class="eda-wire" d="M 3690 133 L 3730 133 L 3730 843 L 3800 843" fill="none" stroke="#536f8b" stroke-width="1.5" vector-effect="non-scaling-stroke" pointer-events="none"/></g></g><g data-eda-wire="wire-17" data-net-ids="[&quot;net:[\&quot;shipment_items\&quot;,[\&quot;shipment_items.id\&quot;]]&quot;]" data-rel-ids="[&quot;demo-rel-17&quot;]" data-kind="branch" data-highlight="false" opacity="1" role="button" tabindex="0" aria-label="关系 1 条"><g><path d="M 3690 536 L 3720 536 L 3720 873 L 3800 873" fill="none" stroke="transparent" stroke-width="14" vector-effect="non-scaling-stroke"/><path class="eda-wire" d="M 3690 536 L 3720 536 L 3720 873 L 3800 873" fill="none" stroke="#536f8b" stroke-width="1.5" vector-effect="non-scaling-stroke" pointer-events="none"/></g></g><g data-eda-wire="wire-18" data-net-ids="[&quot;net:[\&quot;shipments\&quot;,[\&quot;shipments.id\&quot;]]&quot;]" data-rel-ids="[&quot;demo-rel-13&quot;]" data-kind="branch" data-highlight="false" opacity="1" role="button" tabindex="0" aria-label="关系 1 条"><g><path d="M 3220 279 L 3250 279 L 3250 566 L 3330 566" fill="none" stroke="transparent" stroke-width="14" vector-effect="non-scaling-stroke"/><path class="eda-wire" d="M 3220 279 L 3250 279 L 3250 566 L 3330 566" fill="none" stroke="#536f8b" stroke-width="1.5" vector-effect="non-scaling-stroke" pointer-events="none"/></g></g><g data-eda-wire="wire-19" data-net-ids="[&quot;net:[\&quot;stock_reservations\&quot;,[\&quot;stock_reservations.id\&quot;]]&quot;]" data-rel-ids="[&quot;demo-rel-11&quot;]" data-kind="branch" data-highlight="false" opacity="1" role="button" tabindex="0" aria-label="关系 1 条"><g><path d="M 2750 686 L 2860 686" fill="none" stroke="transparent" stroke-width="14" vector-effect="non-scaling-stroke"/><path class="eda-wire" d="M 2750 686 L 2860 686" fill="none" stroke="#536f8b" stroke-width="1.5" vector-effect="non-scaling-stroke" pointer-events="none"/></g></g><g data-eda-wire="wire-20" data-net-ids="[&quot;net:[\&quot;warehouses\&quot;,[\&quot;warehouses.id\&quot;]]&quot;]" data-rel-ids="[&quot;demo-rel-0&quot;,&quot;demo-rel-8&quot;,&quot;demo-rel-18&quot;]" data-kind="bus" data-highlight="false" opacity="1" role="button" tabindex="0" aria-label="Bus 3 条"><g><path d="M 1340 772 L 1618 772" fill="none" stroke="transparent" stroke-width="14" vector-effect="non-scaling-stroke"/><path class="eda-wire" d="M 1340 772 L 1618 772" fill="none" stroke="#3276b9" stroke-width="2.8" vector-effect="non-scaling-stroke" pointer-events="none"/></g></g><g data-eda-wire="wire-21" data-net-ids="[&quot;net:[\&quot;warehouses\&quot;,[\&quot;warehouses.id\&quot;]]&quot;]" data-rel-ids="[&quot;demo-rel-0&quot;]" data-kind="branch" data-highlight="false" opacity="1" role="button" tabindex="0" aria-label="关系 1 条"><g><path d="M 1642 772 L 1840 772 L 1840 776 L 1920 776" fill="none" stroke="transparent" stroke-width="14" vector-effect="non-scaling-stroke"/><path class="eda-wire" d="M 1642 772 L 1840 772 L 1840 776 L 1920 776" fill="none" stroke="#3276b9" stroke-width="1.5" vector-effect="non-scaling-stroke" pointer-events="none"/></g></g><g data-eda-wire="wire-22" data-net-ids="[&quot;net:[\&quot;warehouses\&quot;,[\&quot;warehouses.id\&quot;]]&quot;]" data-rel-ids="[&quot;demo-rel-8&quot;]" data-kind="branch" data-highlight="false" opacity="1" role="button" tabindex="0" aria-label="关系 1 条"><g><path d="M 1642 772 L 1840 772 L 1840 369 L 1920 369" fill="none" stroke="transparent" stroke-width="14" vector-effect="non-scaling-stroke"/><path class="eda-wire" d="M 1642 772 L 1840 772 L 1840 369 L 1920 369" fill="none" stroke="#3276b9" stroke-width="1.5" vector-effect="non-scaling-stroke" pointer-events="none"/></g></g><g data-eda-wire="wire-23" data-net-ids="[&quot;net:[\&quot;warehouses\&quot;,[\&quot;warehouses.id\&quot;]]&quot;]" data-rel-ids="[&quot;demo-rel-18&quot;]" data-kind="branch" data-highlight="false" opacity="1" role="button" tabindex="0" aria-label="关系 1 条"><g><path d="M 1642 772 L 1840 772 L 1840 903 L 3800 903" fill="none" stroke="transparent" stroke-width="14" vector-effect="non-scaling-stroke"/><path class="eda-wire" d="M 1642 772 L 1840 772 L 1840 903 L 3800 903" fill="none" stroke="#3276b9" stroke-width="1.5" vector-effect="non-scaling-stroke" pointer-events="none"/></g></g><g transform="translate(40,306)" data-eda-node="table:&quot;customers&quot;" data-node-kind="table" data-table-id="customers" data-net-id="" data-highlight="false" class="eda-node" role="button" tabindex="0" aria-label="table customers"><title>Fictional demo. 客户标识；仅定义结构，不包含任何个人记录。</title><rect width="360" height="108" rx="5" fill="var(--wiki-card)" stroke="var(--wiki-line)"/><rect width="360" height="4" rx="2" fill="#0f766e"/><text x="12" y="26" class="eda-node-title">customers</text><text x="12" y="47" class="eda-small">订单与库存占用 · 4 个字段</text><rect x="1" y="55" width="358" height="23" fill="var(--wiki-surface)"/><text x="12" y="71" class="eda-small">字段名</text><text x="162" y="71" class="eda-small">类型</text><text x="270" y="71" class="eda-small">显示名称</text><g data-eda-field="customers.id" data-eda-endpoint="false"><title>id: 标识</title><line x1="0" x2="360" y1="78" y2="78" stroke="var(--wiki-line)"/><text x="12" y="98" class="eda-field-name">⚿ id</text><text x="162" y="98" class="eda-field-type"><title>BIGINT UNSIGNED</title>BIGINT UNSIGNED</text><text x="270" y="98" class="eda-small"><title>标识</title>标识</text></g><circle cx="360" cy="93" r="2.5" fill="#0f766e" pointer-events="none"/></g><g transform="translate(510,509)" data-eda-node="table:&quot;products&quot;" data-node-kind="table" data-table-id="products" data-net-id="" data-highlight="false" class="eda-node" role="button" tabindex="0" aria-label="table products"><title>Fictional demo. 按 SKU 管理的示例商品；不建模复杂商品变体。</title><rect width="360" height="138" rx="5" fill="var(--wiki-card)" stroke="var(--wiki-line)"/><rect width="360" height="4" rx="2" fill="#3276b9"/><text x="12" y="26" class="eda-node-title">products</text><text x="12" y="47" class="eda-small">商品与库存 · 5 个字段</text><rect x="1" y="55" width="358" height="23" fill="var(--wiki-surface)"/><text x="12" y="71" class="eda-small">字段名</text><text x="162" y="71" class="eda-small">类型</text><text x="270" y="71" class="eda-small">显示名称</text><g data-eda-field="products.id" data-eda-endpoint="false"><title>id: 标识</title><line x1="0" x2="360" y1="78" y2="78" stroke="var(--wiki-line)"/><text x="12" y="98" class="eda-field-name">⚿ id</text><text x="162" y="98" class="eda-field-type"><title>BIGINT UNSIGNED</title>BIGINT UNSIGNED</text><text x="270" y="98" class="eda-small"><title>标识</title>标识</text></g><g data-eda-field="products.sku" data-eda-endpoint="false"><title>sku: SKU</title><line x1="0" x2="360" y1="108" y2="108" stroke="var(--wiki-line)"/><text x="12" y="128" class="eda-field-name">sku</text><text x="162" y="128" class="eda-field-type"><title>VARCHAR(40)</title>VARCHAR(40)</text><text x="270" y="128" class="eda-small"><title>SKU</title>SKU</text></g><circle cx="360" cy="93" r="2.5" fill="#3276b9" pointer-events="none"/></g><g transform="translate(980,679)" data-eda-node="table:&quot;warehouses&quot;" data-node-kind="table" data-table-id="warehouses" data-net-id="" data-highlight="false" class="eda-node" role="button" tabindex="0" aria-label="table warehouses"><title>Fictional demo. 可用于出库或退货入库的仓库。</title><rect width="360" height="108" rx="5" fill="var(--wiki-card)" stroke="var(--wiki-line)"/><rect width="360" height="4" rx="2" fill="#3276b9"/><text x="12" y="26" class="eda-node-title">warehouses</text><text x="12" y="47" class="eda-small">商品与库存 · 4 个字段</text><rect x="1" y="55" width="358" height="23" fill="var(--wiki-surface)"/><text x="12" y="71" class="eda-small">字段名</text><text x="162" y="71" class="eda-small">类型</text><text x="270" y="71" class="eda-small">显示名称</text><g data-eda-field="warehouses.id" data-eda-endpoint="false"><title>id: 标识</title><line x1="0" x2="360" y1="78" y2="78" stroke="var(--wiki-line)"/><text x="12" y="98" class="eda-field-name">⚿ id</text><text x="162" y="98" class="eda-field-type"><title>BIGINT UNSIGNED</title>BIGINT UNSIGNED</text><text x="270" y="98" class="eda-small"><title>标识</title>标识</text></g><circle cx="360" cy="93" r="2.5" fill="#3276b9" pointer-events="none"/></g><g transform="translate(1920,653)" data-eda-node="table:&quot;inventory&quot;" data-node-kind="table" data-table-id="inventory" data-net-id="" data-highlight="false" class="eda-node" role="button" tabindex="0" aria-label="table inventory"><title>Fictional demo. 每个仓库和 SKU 一条库存；可用量=在库量-占用量。</title><rect width="360" height="228" rx="5" fill="var(--wiki-card)" stroke="var(--wiki-line)"/><rect width="360" height="4" rx="2" fill="#3276b9"/><text x="12" y="26" class="eda-node-title">inventory</text><text x="12" y="47" class="eda-small">商品与库存 · 7 个字段</text><rect x="1" y="55" width="358" height="23" fill="var(--wiki-surface)"/><text x="12" y="71" class="eda-small">字段名</text><text x="162" y="71" class="eda-small">类型</text><text x="270" y="71" class="eda-small">显示名称</text><g data-eda-field="inventory.id" data-eda-endpoint="false"><title>id: 标识</title><line x1="0" x2="360" y1="78" y2="78" stroke="var(--wiki-line)"/><text x="12" y="98" class="eda-field-name">⚿ id</text><text x="162" y="98" class="eda-field-type"><title>BIGINT UNSIGNED</title>BIGINT UNSIGNED</text><text x="270" y="98" class="eda-small"><title>标识</title>标识</text></g><g data-eda-field="inventory.warehouse_id" data-eda-endpoint="false"><title>warehouse_id: 仓库</title><line x1="0" x2="360" y1="108" y2="108" stroke="var(--wiki-line)"/><text x="12" y="128" class="eda-field-name">warehouse_id</text><text x="162" y="128" class="eda-field-type"><title>BIGINT UNSIGNED</title>BIGINT UNSIGNED</text><text x="270" y="128" class="eda-small"><title>仓库</title>仓库</text></g><g data-eda-field="inventory.product_id" data-eda-endpoint="false"><title>product_id: 商品</title><line x1="0" x2="360" y1="138" y2="138" stroke="var(--wiki-line)"/><text x="12" y="158" class="eda-field-name">product_id</text><text x="162" y="158" class="eda-field-type"><title>BIGINT UNSIGNED</title>BIGINT UNSIGNED</text><text x="270" y="158" class="eda-small"><title>商品</title>商品</text></g><g data-eda-field="inventory.on_hand" data-eda-endpoint="false"><title>on_hand: 在库数量</title><line x1="0" x2="360" y1="168" y2="168" stroke="var(--wiki-line)"/><text x="12" y="188" class="eda-field-name">on_hand</text><text x="162" y="188" class="eda-field-type"><title>INT UNSIGNED</title>INT UNSIGNED</text><text x="270" y="188" class="eda-small"><title>在库数量</title>在库数量</text></g><g data-eda-field="inventory.reserved" data-eda-endpoint="false"><title>reserved: 占用数量</title><line x1="0" x2="360" y1="198" y2="198" stroke="var(--wiki-line)"/><text x="12" y="218" class="eda-field-name">reserved</text><text x="162" y="218" class="eda-field-type"><title>INT UNSIGNED</title>INT UNSIGNED</text><text x="270" y="218" class="eda-small"><title>占用数量</title>占用数量</text></g><circle cx="360" cy="93" r="2.5" fill="#3276b9" pointer-events="none"/><circle cx="0" cy="153" r="2.5" fill="#3276b9" pointer-events="none"/><circle cx="0" cy="123" r="2.5" fill="#3276b9" pointer-events="none"/></g><g transform="translate(510,246)" data-eda-node="table:&quot;orders&quot;" data-node-kind="table" data-table-id="orders" data-net-id="" data-highlight="false" class="eda-node" role="button" tabindex="0" aria-label="table orders"><title>Fictional demo. 客户订单可拆为多个仓库履约单，也可部分发货。</title><rect width="360" height="198" rx="5" fill="var(--wiki-card)" stroke="var(--wiki-line)"/><rect width="360" height="4" rx="2" fill="#0f766e"/><text x="12" y="26" class="eda-node-title">orders</text><text x="12" y="47" class="eda-small">订单与库存占用 · 7 个字段</text><rect x="1" y="55" width="358" height="23" fill="var(--wiki-surface)"/><text x="12" y="71" class="eda-small">字段名</text><text x="162" y="71" class="eda-small">类型</text><text x="270" y="71" class="eda-small">显示名称</text><g data-eda-field="orders.id" data-eda-endpoint="false"><title>id: 标识</title><line x1="0" x2="360" y1="78" y2="78" stroke="var(--wiki-line)"/><text x="12" y="98" class="eda-field-name">⚿ id</text><text x="162" y="98" class="eda-field-type"><title>BIGINT UNSIGNED</title>BIGINT UNSIGNED</text><text x="270" y="98" class="eda-small"><title>标识</title>标识</text></g><g data-eda-field="orders.order_no" data-eda-endpoint="false"><title>order_no: 订单号</title><line x1="0" x2="360" y1="108" y2="108" stroke="var(--wiki-line)"/><text x="12" y="128" class="eda-field-name">order_no</text><text x="162" y="128" class="eda-field-type"><title>VARCHAR(40)</title>VARCHAR(40)</text><text x="270" y="128" class="eda-small"><title>订单号</title>订单号</text></g><g data-eda-field="orders.customer_id" data-eda-endpoint="false"><title>customer_id: 客户</title><line x1="0" x2="360" y1="138" y2="138" stroke="var(--wiki-line)"/><text x="12" y="158" class="eda-field-name">customer_id</text><text x="162" y="158" class="eda-field-type"><title>BIGINT UNSIGNED</title>BIGINT UNSIGNED</text><text x="270" y="158" class="eda-small"><title>客户</title>客户</text></g><g data-eda-field="orders.status" data-eda-endpoint="false"><title>status: 订单状态</title><line x1="0" x2="360" y1="168" y2="168" stroke="var(--wiki-line)"/><text x="12" y="188" class="eda-field-name">status</text><text x="162" y="188" class="eda-field-type"><title>VARCHAR(24)</title>VARCHAR(24)</text><text x="270" y="188" class="eda-small"><title>订单状态</title>订单状态</text></g><circle cx="0" cy="153" r="2.5" fill="#0f766e" pointer-events="none"/><circle cx="360" cy="93" r="2.5" fill="#0f766e" pointer-events="none"/></g><g transform="translate(1450,449)" data-eda-node="table:&quot;order_items&quot;" data-node-kind="table" data-table-id="order_items" data-net-id="" data-highlight="false" class="eda-node" role="button" tabindex="0" aria-label="table order_items"><title>Fictional demo. 订单商品行保留交易时的数量与单价快照。</title><rect width="360" height="198" rx="5" fill="var(--wiki-card)" stroke="var(--wiki-line)"/><rect width="360" height="4" rx="2" fill="#0f766e"/><text x="12" y="26" class="eda-node-title">order_items</text><text x="12" y="47" class="eda-small">订单与库存占用 · 6 个字段</text><rect x="1" y="55" width="358" height="23" fill="var(--wiki-surface)"/><text x="12" y="71" class="eda-small">字段名</text><text x="162" y="71" class="eda-small">类型</text><text x="270" y="71" class="eda-small">显示名称</text><g data-eda-field="order_items.id" data-eda-endpoint="false"><title>id: 标识</title><line x1="0" x2="360" y1="78" y2="78" stroke="var(--wiki-line)"/><text x="12" y="98" class="eda-field-name">⚿ id</text><text x="162" y="98" class="eda-field-type"><title>BIGINT UNSIGNED</title>BIGINT UNSIGNED</text><text x="270" y="98" class="eda-small"><title>标识</title>标识</text></g><g data-eda-field="order_items.order_id" data-eda-endpoint="false"><title>order_id: 订单</title><line x1="0" x2="360" y1="108" y2="108" stroke="var(--wiki-line)"/><text x="12" y="128" class="eda-field-name">order_id</text><text x="162" y="128" class="eda-field-type"><title>BIGINT UNSIGNED</title>BIGINT UNSIGNED</text><text x="270" y="128" class="eda-small"><title>订单</title>订单</text></g><g data-eda-field="order_items.product_id" data-eda-endpoint="false"><title>product_id: 商品</title><line x1="0" x2="360" y1="138" y2="138" stroke="var(--wiki-line)"/><text x="12" y="158" class="eda-field-name">product_id</text><text x="162" y="158" class="eda-field-type"><title>BIGINT UNSIGNED</title>BIGINT UNSIGNED</text><text x="270" y="158" class="eda-small"><title>商品</title>商品</text></g><g data-eda-field="order_items.quantity" data-eda-endpoint="false"><title>quantity: 下单数量</title><line x1="0" x2="360" y1="168" y2="168" stroke="var(--wiki-line)"/><text x="12" y="188" class="eda-field-name">quantity</text><text x="162" y="188" class="eda-field-type"><title>INT UNSIGNED</title>INT UNSIGNED</text><text x="270" y="188" class="eda-small"><title>下单数量</title>下单数量</text></g><circle cx="360" cy="93" r="2.5" fill="#0f766e" pointer-events="none"/><circle cx="0" cy="123" r="2.5" fill="#0f766e" pointer-events="none"/><circle cx="0" cy="153" r="2.5" fill="#0f766e" pointer-events="none"/></g><g transform="translate(2390,593)" data-eda-node="table:&quot;stock_reservations&quot;" data-node-kind="table" data-table-id="stock_reservations" data-net-id="" data-highlight="false" class="eda-node" role="button" tabindex="0" aria-label="table stock_reservations"><title>Fictional demo. 订单行可分配至多个仓库库存；释放占用不等于已经出库。</title><rect width="360" height="228" rx="5" fill="var(--wiki-card)" stroke="var(--wiki-line)"/><rect width="360" height="4" rx="2" fill="#0f766e"/><text x="12" y="26" class="eda-node-title">stock_reservations</text><text x="12" y="47" class="eda-small">订单与库存占用 · 8 个字段</text><rect x="1" y="55" width="358" height="23" fill="var(--wiki-surface)"/><text x="12" y="71" class="eda-small">字段名</text><text x="162" y="71" class="eda-small">类型</text><text x="270" y="71" class="eda-small">显示名称</text><g data-eda-field="stock_reservations.id" data-eda-endpoint="false"><title>id: 标识</title><line x1="0" x2="360" y1="78" y2="78" stroke="var(--wiki-line)"/><text x="12" y="98" class="eda-field-name">⚿ id</text><text x="162" y="98" class="eda-field-type"><title>BIGINT UNSIGNED</title>BIGINT UNSIGNED</text><text x="270" y="98" class="eda-small"><title>标识</title>标识</text></g><g data-eda-field="stock_reservations.order_item_id" data-eda-endpoint="false"><title>order_item_id: 订单行</title><line x1="0" x2="360" y1="108" y2="108" stroke="var(--wiki-line)"/><text x="12" y="128" class="eda-field-name">order_item_id</text><text x="162" y="128" class="eda-field-type"><title>BIGINT UNSIGNED</title>BIGINT UNSIGNED</text><text x="270" y="128" class="eda-small"><title>订单行</title>订单行</text></g><g data-eda-field="stock_reservations.inventory_id" data-eda-endpoint="false"><title>inventory_id: 仓库库存</title><line x1="0" x2="360" y1="138" y2="138" stroke="var(--wiki-line)"/><text x="12" y="158" class="eda-field-name">inventory_id</text><text x="162" y="158" class="eda-field-type"><title>BIGINT UNSIGNED</title>BIGINT UNSIGNED</text><text x="270" y="158" class="eda-small"><title>仓库库存</title>仓库库存</text></g><g data-eda-field="stock_reservations.quantity" data-eda-endpoint="false"><title>quantity: 占用数量</title><line x1="0" x2="360" y1="168" y2="168" stroke="var(--wiki-line)"/><text x="12" y="188" class="eda-field-name">quantity</text><text x="162" y="188" class="eda-field-type"><title>INT UNSIGNED</title>INT UNSIGNED</text><text x="270" y="188" class="eda-small"><title>占用数量</title>占用数量</text></g><g data-eda-field="stock_reservations.status" data-eda-endpoint="false"><title>status: 占用状态</title><line x1="0" x2="360" y1="198" y2="198" stroke="var(--wiki-line)"/><text x="12" y="218" class="eda-field-name">status</text><text x="162" y="218" class="eda-field-type"><title>VARCHAR(24)</title>VARCHAR(24)</text><text x="270" y="218" class="eda-small"><title>占用状态</title>占用状态</text></g><circle cx="0" cy="153" r="2.5" fill="#0f766e" pointer-events="none"/><circle cx="0" cy="123" r="2.5" fill="#0f766e" pointer-events="none"/><circle cx="360" cy="93" r="2.5" fill="#0f766e" pointer-events="none"/></g><g transform="translate(1920,216)" data-eda-node="table:&quot;fulfillments&quot;" data-node-kind="table" data-table-id="fulfillments" data-net-id="" data-highlight="false" class="eda-node" role="button" tabindex="0" aria-label="table fulfillments"><title>Fictional demo. 一个订单可按仓库、处理批次拆分多个履约单。</title><rect width="360" height="228" rx="5" fill="var(--wiki-card)" stroke="var(--wiki-line)"/><rect width="360" height="4" rx="2" fill="#865bb4"/><text x="12" y="26" class="eda-node-title">fulfillments</text><text x="12" y="47" class="eda-small">分仓履约与发货 · 6 个字段</text><rect x="1" y="55" width="358" height="23" fill="var(--wiki-surface)"/><text x="12" y="71" class="eda-small">字段名</text><text x="162" y="71" class="eda-small">类型</text><text x="270" y="71" class="eda-small">显示名称</text><g data-eda-field="fulfillments.id" data-eda-endpoint="false"><title>id: 标识</title><line x1="0" x2="360" y1="78" y2="78" stroke="var(--wiki-line)"/><text x="12" y="98" class="eda-field-name">⚿ id</text><text x="162" y="98" class="eda-field-type"><title>BIGINT UNSIGNED</title>BIGINT UNSIGNED</text><text x="270" y="98" class="eda-small"><title>标识</title>标识</text></g><g data-eda-field="fulfillments.order_id" data-eda-endpoint="false"><title>order_id: 订单</title><line x1="0" x2="360" y1="108" y2="108" stroke="var(--wiki-line)"/><text x="12" y="128" class="eda-field-name">order_id</text><text x="162" y="128" class="eda-field-type"><title>BIGINT UNSIGNED</title>BIGINT UNSIGNED</text><text x="270" y="128" class="eda-small"><title>订单</title>订单</text></g><g data-eda-field="fulfillments.warehouse_id" data-eda-endpoint="false"><title>warehouse_id: 出库仓库</title><line x1="0" x2="360" y1="138" y2="138" stroke="var(--wiki-line)"/><text x="12" y="158" class="eda-field-name">warehouse_id</text><text x="162" y="158" class="eda-field-type"><title>BIGINT UNSIGNED</title>BIGINT UNSIGNED</text><text x="270" y="158" class="eda-small"><title>出库仓库</title>出库仓库</text></g><g data-eda-field="fulfillments.fulfillment_no" data-eda-endpoint="false"><title>fulfillment_no: 履约单号</title><line x1="0" x2="360" y1="168" y2="168" stroke="var(--wiki-line)"/><text x="12" y="188" class="eda-field-name">fulfillment_no</text><text x="162" y="188" class="eda-field-type"><title>VARCHAR(40)</title>VARCHAR(40)</text><text x="270" y="188" class="eda-small"><title>履约单号</title>履约单号</text></g><g data-eda-field="fulfillments.status" data-eda-endpoint="false"><title>status: 履约状态</title><line x1="0" x2="360" y1="198" y2="198" stroke="var(--wiki-line)"/><text x="12" y="218" class="eda-field-name">status</text><text x="162" y="218" class="eda-field-type"><title>VARCHAR(24)</title>VARCHAR(24)</text><text x="270" y="218" class="eda-small"><title>履约状态</title>履约状态</text></g><circle cx="360" cy="93" r="2.5" fill="#865bb4" pointer-events="none"/><circle cx="0" cy="123" r="2.5" fill="#865bb4" pointer-events="none"/><circle cx="0" cy="153" r="2.5" fill="#865bb4" pointer-events="none"/></g><g transform="translate(2860,503)" data-eda-node="table:&quot;fulfillment_items&quot;" data-node-kind="table" data-table-id="fulfillment_items" data-net-id="" data-highlight="false" class="eda-node" role="button" tabindex="0" aria-label="table fulfillment_items"><title>Fictional demo. 分仓拣配明细，明确对应订单行与库存占用。</title><rect width="360" height="228" rx="5" fill="var(--wiki-card)" stroke="var(--wiki-line)"/><rect width="360" height="4" rx="2" fill="#865bb4"/><text x="12" y="26" class="eda-node-title">fulfillment_items</text><text x="12" y="47" class="eda-small">分仓履约与发货 · 6 个字段</text><rect x="1" y="55" width="358" height="23" fill="var(--wiki-surface)"/><text x="12" y="71" class="eda-small">字段名</text><text x="162" y="71" class="eda-small">类型</text><text x="270" y="71" class="eda-small">显示名称</text><g data-eda-field="fulfillment_items.id" data-eda-endpoint="false"><title>id: 标识</title><line x1="0" x2="360" y1="78" y2="78" stroke="var(--wiki-line)"/><text x="12" y="98" class="eda-field-name">⚿ id</text><text x="162" y="98" class="eda-field-type"><title>BIGINT UNSIGNED</title>BIGINT UNSIGNED</text><text x="270" y="98" class="eda-small"><title>标识</title>标识</text></g><g data-eda-field="fulfillment_items.fulfillment_id" data-eda-endpoint="false"><title>fulfillment_id: 履约单</title><line x1="0" x2="360" y1="108" y2="108" stroke="var(--wiki-line)"/><text x="12" y="128" class="eda-field-name">fulfillment_id</text><text x="162" y="128" class="eda-field-type"><title>BIGINT UNSIGNED</title>BIGINT UNSIGNED</text><text x="270" y="128" class="eda-small"><title>履约单</title>履约单</text></g><g data-eda-field="fulfillment_items.order_item_id" data-eda-endpoint="false"><title>order_item_id: 订单行</title><line x1="0" x2="360" y1="138" y2="138" stroke="var(--wiki-line)"/><text x="12" y="158" class="eda-field-name">order_item_id</text><text x="162" y="158" class="eda-field-type"><title>BIGINT UNSIGNED</title>BIGINT UNSIGNED</text><text x="270" y="158" class="eda-small"><title>订单行</title>订单行</text></g><g data-eda-field="fulfillment_items.reservation_id" data-eda-endpoint="false"><title>reservation_id: 库存占用</title><line x1="0" x2="360" y1="168" y2="168" stroke="var(--wiki-line)"/><text x="12" y="188" class="eda-field-name">reservation_id</text><text x="162" y="188" class="eda-field-type"><title>BIGINT UNSIGNED</title>BIGINT UNSIGNED</text><text x="270" y="188" class="eda-small"><title>库存占用</title>库存占用</text></g><g data-eda-field="fulfillment_items.quantity" data-eda-endpoint="false"><title>quantity: 履约数量</title><line x1="0" x2="360" y1="198" y2="198" stroke="var(--wiki-line)"/><text x="12" y="218" class="eda-field-name">quantity</text><text x="162" y="218" class="eda-field-type"><title>INT UNSIGNED</title>INT UNSIGNED</text><text x="270" y="218" class="eda-small"><title>履约数量</title>履约数量</text></g><circle cx="360" cy="93" r="2.5" fill="#865bb4" pointer-events="none"/><circle cx="0" cy="123" r="2.5" fill="#865bb4" pointer-events="none"/><circle cx="0" cy="153" r="2.5" fill="#865bb4" pointer-events="none"/><circle cx="0" cy="183" r="2.5" fill="#865bb4" pointer-events="none"/></g><g transform="translate(2860,186)" data-eda-node="table:&quot;shipments&quot;" data-node-kind="table" data-table-id="shipments" data-net-id="" data-highlight="false" class="eda-node" role="button" tabindex="0" aria-label="table shipments"><title>Fictional demo. 履约单可分包裹发货；物流交付状态独立于拣配状态。</title><rect width="360" height="168" rx="5" fill="var(--wiki-card)" stroke="var(--wiki-line)"/><rect width="360" height="4" rx="2" fill="#865bb4"/><text x="12" y="26" class="eda-node-title">shipments</text><text x="12" y="47" class="eda-small">分仓履约与发货 · 7 个字段</text><rect x="1" y="55" width="358" height="23" fill="var(--wiki-surface)"/><text x="12" y="71" class="eda-small">字段名</text><text x="162" y="71" class="eda-small">类型</text><text x="270" y="71" class="eda-small">显示名称</text><g data-eda-field="shipments.id" data-eda-endpoint="false"><title>id: 标识</title><line x1="0" x2="360" y1="78" y2="78" stroke="var(--wiki-line)"/><text x="12" y="98" class="eda-field-name">⚿ id</text><text x="162" y="98" class="eda-field-type"><title>BIGINT UNSIGNED</title>BIGINT UNSIGNED</text><text x="270" y="98" class="eda-small"><title>标识</title>标识</text></g><g data-eda-field="shipments.fulfillment_id" data-eda-endpoint="false"><title>fulfillment_id: 履约单</title><line x1="0" x2="360" y1="108" y2="108" stroke="var(--wiki-line)"/><text x="12" y="128" class="eda-field-name">fulfillment_id</text><text x="162" y="128" class="eda-field-type"><title>BIGINT UNSIGNED</title>BIGINT UNSIGNED</text><text x="270" y="128" class="eda-small"><title>履约单</title>履约单</text></g><g data-eda-field="shipments.status" data-eda-endpoint="false"><title>status: 物流状态</title><line x1="0" x2="360" y1="138" y2="138" stroke="var(--wiki-line)"/><text x="12" y="158" class="eda-field-name">status</text><text x="162" y="158" class="eda-field-type"><title>VARCHAR(24)</title>VARCHAR(24)</text><text x="270" y="158" class="eda-small"><title>物流状态</title>物流状态</text></g><circle cx="0" cy="123" r="2.5" fill="#865bb4" pointer-events="none"/><circle cx="360" cy="93" r="2.5" fill="#865bb4" pointer-events="none"/></g><g transform="translate(3330,443)" data-eda-node="table:&quot;shipment_items&quot;" data-node-kind="table" data-table-id="shipment_items" data-net-id="" data-highlight="false" class="eda-node" role="button" tabindex="0" aria-label="table shipment_items"><title>Fictional demo. 包裹明细支持部分发货，避免只在订单头保存一个运单号。</title><rect width="360" height="198" rx="5" fill="var(--wiki-card)" stroke="var(--wiki-line)"/><rect width="360" height="4" rx="2" fill="#865bb4"/><text x="12" y="26" class="eda-node-title">shipment_items</text><text x="12" y="47" class="eda-small">分仓履约与发货 · 5 个字段</text><rect x="1" y="55" width="358" height="23" fill="var(--wiki-surface)"/><text x="12" y="71" class="eda-small">字段名</text><text x="162" y="71" class="eda-small">类型</text><text x="270" y="71" class="eda-small">显示名称</text><g data-eda-field="shipment_items.id" data-eda-endpoint="false"><title>id: 标识</title><line x1="0" x2="360" y1="78" y2="78" stroke="var(--wiki-line)"/><text x="12" y="98" class="eda-field-name">⚿ id</text><text x="162" y="98" class="eda-field-type"><title>BIGINT UNSIGNED</title>BIGINT UNSIGNED</text><text x="270" y="98" class="eda-small"><title>标识</title>标识</text></g><g data-eda-field="shipment_items.shipment_id" data-eda-endpoint="false"><title>shipment_id: 包裹</title><line x1="0" x2="360" y1="108" y2="108" stroke="var(--wiki-line)"/><text x="12" y="128" class="eda-field-name">shipment_id</text><text x="162" y="128" class="eda-field-type"><title>BIGINT UNSIGNED</title>BIGINT UNSIGNED</text><text x="270" y="128" class="eda-small"><title>包裹</title>包裹</text></g><g data-eda-field="shipment_items.fulfillment_item_id" data-eda-endpoint="false"><title>fulfillment_item_id: 履约明细</title><line x1="0" x2="360" y1="138" y2="138" stroke="var(--wiki-line)"/><text x="12" y="158" class="eda-field-name">fulfillment_item_id</text><text x="162" y="158" class="eda-field-type"><title>BIGINT UNSIGNED</title>BIGINT UNSIGNED</text><text x="270" y="158" class="eda-small"><title>履约明细</title>履约明细</text></g><g data-eda-field="shipment_items.quantity" data-eda-endpoint="false"><title>quantity: 发货数量</title><line x1="0" x2="360" y1="168" y2="168" stroke="var(--wiki-line)"/><text x="12" y="188" class="eda-field-name">quantity</text><text x="162" y="188" class="eda-field-type"><title>INT UNSIGNED</title>INT UNSIGNED</text><text x="270" y="188" class="eda-small"><title>发货数量</title>发货数量</text></g><circle cx="0" cy="153" r="2.5" fill="#865bb4" pointer-events="none"/><circle cx="360" cy="93" r="2.5" fill="#865bb4" pointer-events="none"/><circle cx="0" cy="123" r="2.5" fill="#865bb4" pointer-events="none"/></g><g transform="translate(3330,40)" data-eda-node="table:&quot;returns&quot;" data-node-kind="table" data-table-id="returns" data-net-id="" data-highlight="false" class="eda-node" role="button" tabindex="0" aria-label="table returns"><title>Fictional demo. 退货申请独立于退款；此示例不包含支付和退款账务。</title><rect width="360" height="198" rx="5" fill="var(--wiki-card)" stroke="var(--wiki-line)"/><rect width="360" height="4" rx="2" fill="#bd7a24"/><text x="12" y="26" class="eda-node-title">returns</text><text x="12" y="47" class="eda-small">退货与处置 · 5 个字段</text><rect x="1" y="55" width="358" height="23" fill="var(--wiki-surface)"/><text x="12" y="71" class="eda-small">字段名</text><text x="162" y="71" class="eda-small">类型</text><text x="270" y="71" class="eda-small">显示名称</text><g data-eda-field="returns.id" data-eda-endpoint="false"><title>id: 标识</title><line x1="0" x2="360" y1="78" y2="78" stroke="var(--wiki-line)"/><text x="12" y="98" class="eda-field-name">⚿ id</text><text x="162" y="98" class="eda-field-type"><title>BIGINT UNSIGNED</title>BIGINT UNSIGNED</text><text x="270" y="98" class="eda-small"><title>标识</title>标识</text></g><g data-eda-field="returns.order_id" data-eda-endpoint="false"><title>order_id: 原订单</title><line x1="0" x2="360" y1="108" y2="108" stroke="var(--wiki-line)"/><text x="12" y="128" class="eda-field-name">order_id</text><text x="162" y="128" class="eda-field-type"><title>BIGINT UNSIGNED</title>BIGINT UNSIGNED</text><text x="270" y="128" class="eda-small"><title>原订单</title>原订单</text></g><g data-eda-field="returns.return_no" data-eda-endpoint="false"><title>return_no: 退货单号</title><line x1="0" x2="360" y1="138" y2="138" stroke="var(--wiki-line)"/><text x="12" y="158" class="eda-field-name">return_no</text><text x="162" y="158" class="eda-field-type"><title>VARCHAR(40)</title>VARCHAR(40)</text><text x="270" y="158" class="eda-small"><title>退货单号</title>退货单号</text></g><g data-eda-field="returns.status" data-eda-endpoint="false"><title>status: 退货状态</title><line x1="0" x2="360" y1="168" y2="168" stroke="var(--wiki-line)"/><text x="12" y="188" class="eda-field-name">status</text><text x="162" y="188" class="eda-field-type"><title>VARCHAR(24)</title>VARCHAR(24)</text><text x="270" y="188" class="eda-small"><title>退货状态</title>退货状态</text></g><circle cx="0" cy="123" r="2.5" fill="#bd7a24" pointer-events="none"/><circle cx="360" cy="93" r="2.5" fill="#bd7a24" pointer-events="none"/></g><g transform="translate(3800,720)" data-eda-node="table:&quot;return_items&quot;" data-node-kind="table" data-table-id="return_items" data-net-id="" data-highlight="false" class="eda-node" role="button" tabindex="0" aria-label="table return_items"><title>Fictional demo. 退货行关联已发货明细，区分可售入库、隔离和报废。</title><rect width="360" height="258" rx="5" fill="var(--wiki-card)" stroke="var(--wiki-line)"/><rect width="360" height="4" rx="2" fill="#bd7a24"/><text x="12" y="26" class="eda-node-title">return_items</text><text x="12" y="47" class="eda-small">退货与处置 · 7 个字段</text><rect x="1" y="55" width="358" height="23" fill="var(--wiki-surface)"/><text x="12" y="71" class="eda-small">字段名</text><text x="162" y="71" class="eda-small">类型</text><text x="270" y="71" class="eda-small">显示名称</text><g data-eda-field="return_items.id" data-eda-endpoint="false"><title>id: 标识</title><line x1="0" x2="360" y1="78" y2="78" stroke="var(--wiki-line)"/><text x="12" y="98" class="eda-field-name">⚿ id</text><text x="162" y="98" class="eda-field-type"><title>BIGINT UNSIGNED</title>BIGINT UNSIGNED</text><text x="270" y="98" class="eda-small"><title>标识</title>标识</text></g><g data-eda-field="return_items.return_id" data-eda-endpoint="false"><title>return_id: 退货单</title><line x1="0" x2="360" y1="108" y2="108" stroke="var(--wiki-line)"/><text x="12" y="128" class="eda-field-name">return_id</text><text x="162" y="128" class="eda-field-type"><title>BIGINT UNSIGNED</title>BIGINT UNSIGNED</text><text x="270" y="128" class="eda-small"><title>退货单</title>退货单</text></g><g data-eda-field="return_items.shipment_item_id" data-eda-endpoint="false"><title>shipment_item_id: 原发货明细</title><line x1="0" x2="360" y1="138" y2="138" stroke="var(--wiki-line)"/><text x="12" y="158" class="eda-field-name">shipment_item_id</text><text x="162" y="158" class="eda-field-type"><title>BIGINT UNSIGNED</title>BIGINT UNSIGNED</text><text x="270" y="158" class="eda-small"><title>原发货明细</title>原发货明细</text></g><g data-eda-field="return_items.warehouse_id" data-eda-endpoint="false"><title>warehouse_id: 退货接收仓库</title><line x1="0" x2="360" y1="168" y2="168" stroke="var(--wiki-line)"/><text x="12" y="188" class="eda-field-name">warehouse_id</text><text x="162" y="188" class="eda-field-type"><title>BIGINT UNSIGNED</title>BIGINT UNSIGNED</text><text x="270" y="188" class="eda-small"><title>退货接收仓库</title>退货接收仓库</text></g><g data-eda-field="return_items.quantity" data-eda-endpoint="false"><title>quantity: 退货数量</title><line x1="0" x2="360" y1="198" y2="198" stroke="var(--wiki-line)"/><text x="12" y="218" class="eda-field-name">quantity</text><text x="162" y="218" class="eda-field-type"><title>INT UNSIGNED</title>INT UNSIGNED</text><text x="270" y="218" class="eda-small"><title>退货数量</title>退货数量</text></g><g data-eda-field="return_items.disposition" data-eda-endpoint="false"><title>disposition: 处置方式</title><line x1="0" x2="360" y1="228" y2="228" stroke="var(--wiki-line)"/><text x="12" y="248" class="eda-field-name">disposition</text><text x="162" y="248" class="eda-field-type"><title>VARCHAR(24)</title>VARCHAR(24)</text><text x="270" y="248" class="eda-small"><title>处置方式</title>处置方式</text></g><circle cx="0" cy="123" r="2.5" fill="#bd7a24" pointer-events="none"/><circle cx="0" cy="153" r="2.5" fill="#bd7a24" pointer-events="none"/><circle cx="0" cy="183" r="2.5" fill="#bd7a24" pointer-events="none"/></g><g transform="translate(2558,297)" data-eda-node="hub:&quot;net:[\&quot;fulfillments\&quot;,[\&quot;fulfillments.id\&quot;]]&quot;" data-node-kind="junction" data-table-id="" data-net-id="net:[&quot;fulfillments&quot;,[&quot;fulfillments.id&quot;]]" data-highlight="false" class="eda-node" role="button" tabindex="0" aria-label="junction N003"><title>N003</title><line x1="0" y1="12" x2="24" y2="12" stroke="#865bb4" stroke-width="2"/><circle cx="12" cy="12" r="4" fill="#865bb4"/><circle cx="0" cy="12" r="2.5" fill="#865bb4" pointer-events="none"/><circle cx="24" cy="12" r="2.5" fill="#865bb4" pointer-events="none"/></g><g transform="translate(2088,530)" data-eda-node="hub:&quot;net:[\&quot;order_items\&quot;,[\&quot;order_items.id\&quot;]]&quot;" data-node-kind="junction" data-table-id="" data-net-id="net:[&quot;order_items&quot;,[&quot;order_items.id&quot;]]" data-highlight="false" class="eda-node" role="button" tabindex="0" aria-label="junction N005"><title>N005</title><line x1="0" y1="12" x2="24" y2="12" stroke="#0f766e" stroke-width="2"/><circle cx="12" cy="12" r="4" fill="#0f766e"/><circle cx="0" cy="12" r="2.5" fill="#0f766e" pointer-events="none"/><circle cx="24" cy="12" r="2.5" fill="#0f766e" pointer-events="none"/></g><g transform="translate(1148,327)" data-eda-node="hub:&quot;net:[\&quot;orders\&quot;,[\&quot;orders.id\&quot;]]&quot;" data-node-kind="junction" data-table-id="" data-net-id="net:[&quot;orders&quot;,[&quot;orders.id&quot;]]" data-highlight="false" class="eda-node" role="button" tabindex="0" aria-label="junction N006"><title>N006</title><line x1="0" y1="12" x2="24" y2="12" stroke="#0f766e" stroke-width="2"/><circle cx="12" cy="12" r="4" fill="#0f766e"/><circle cx="0" cy="12" r="2.5" fill="#0f766e" pointer-events="none"/><circle cx="24" cy="12" r="2.5" fill="#0f766e" pointer-events="none"/></g><g transform="translate(1148,590)" data-eda-node="hub:&quot;net:[\&quot;products\&quot;,[\&quot;products.id\&quot;]]&quot;" data-node-kind="junction" data-table-id="" data-net-id="net:[&quot;products&quot;,[&quot;products.id&quot;]]" data-highlight="false" class="eda-node" role="button" tabindex="0" aria-label="junction N007"><title>N007</title><line x1="0" y1="12" x2="24" y2="12" stroke="#3276b9" stroke-width="2"/><circle cx="12" cy="12" r="4" fill="#3276b9"/><circle cx="0" cy="12" r="2.5" fill="#3276b9" pointer-events="none"/><circle cx="24" cy="12" r="2.5" fill="#3276b9" pointer-events="none"/></g><g transform="translate(1618,760)" data-eda-node="hub:&quot;net:[\&quot;warehouses\&quot;,[\&quot;warehouses.id\&quot;]]&quot;" data-node-kind="junction" data-table-id="" data-net-id="net:[&quot;warehouses&quot;,[&quot;warehouses.id&quot;]]" data-highlight="false" class="eda-node" role="button" tabindex="0" aria-label="junction N012"><title>N012</title><line x1="0" y1="12" x2="24" y2="12" stroke="#3276b9" stroke-width="2"/><circle cx="12" cy="12" r="4" fill="#3276b9"/><circle cx="0" cy="12" r="2.5" fill="#3276b9" pointer-events="none"/><circle cx="24" cy="12" r="2.5" fill="#3276b9" pointer-events="none"/></g></svg>